name rise42.5664peak47.7979fall81.9185.mot
datacolumns 19
datarows 29
range 13.77328200000000 13.81994500000000
endheader
time	ground_force1_vx	ground_force1_vy	ground_force1_vz	ground_force1_px	ground_force1_py	ground_force1_pz	ground_force2_vx	ground_force2_vy	ground_force2_vz	ground_force2_px	ground_force2_py	ground_force2_pz	ground_torque1_x	ground_torque1_y	ground_torque1_z	ground_torque2_x	ground_torque2_y	ground_torque2_z	
13.77328200000000	-7.35552500000000	40.14517400000000	-9.05493200000000	0.30330600000000	0.00000000000000	0.08671000000000	-41.94137900000000	793.60621100000003	-52.66184000000000	0.10624600000000	0.00000000000000	-0.07756900000000	0.00000000000000	-5.14221000000000	0.00000000000000	0.00000000000000	-16.21212700000000	0.00000000000000	
13.77494700000000	-8.10571300000000	46.94235500000000	-10.17818400000000	0.30710500000000	0.00000000000000	0.08754700000000	-42.55679300000000	791.05724499999997	-52.32709800000000	0.10555100000000	0.00000000000000	-0.07746600000000	0.00000000000000	-5.84122300000000	0.00000000000000	0.00000000000000	-16.17683600000000	0.00000000000000	
13.77661100000000	-8.72629300000000	53.79663900000000	-11.19747000000000	0.31048000000000	0.00000000000000	0.08832700000000	-43.18716400000000	788.38377200000002	-51.96359900000000	0.10485500000000	0.00000000000000	-0.07735900000000	0.00000000000000	-6.49224300000000	0.00000000000000	0.00000000000000	-16.14219500000000	0.00000000000000	
13.77828300000000	-9.19693700000000	60.61772200000000	-12.08886000000000	0.31349700000000	0.00000000000000	0.08905800000000	-43.83204100000000	785.58368700000005	-51.57134100000000	0.10416000000000	0.00000000000000	-0.07724900000000	0.00000000000000	-7.08062000000000	0.00000000000000	0.00000000000000	-16.10822700000000	0.00000000000000	
13.77994500000000	-9.50513900000000	67.33815700000000	-12.83652400000000	0.31621000000000	0.00000000000000	0.08974500000000	-44.49088300000000	782.65483700000004	-51.15037500000000	0.10346600000000	0.00000000000000	-0.07713500000000	0.00000000000000	-7.59624900000000	0.00000000000000	0.00000000000000	-16.07494200000000	0.00000000000000	
13.78161200000000	-9.64615200000000	73.91534799999999	-13.43283300000000	0.31866300000000	0.00000000000000	0.09039600000000	-45.16305600000000	779.59502099999997	-50.70080300000000	0.10277100000000	0.00000000000000	-0.07701800000000	0.00000000000000	-8.03371300000000	0.00000000000000	0.00000000000000	-16.04233600000000	0.00000000000000	
13.78327700000000	-9.62229700000000	80.33116099999999	-13.87777600000000	0.32089200000000	0.00000000000000	0.09101300000000	-45.84783500000000	776.40199900000005	-50.22278400000000	0.10207700000000	0.00000000000000	-0.07689700000000	0.00000000000000	-8.39200700000000	0.00000000000000	0.00000000000000	-16.01039500000000	0.00000000000000	
13.78495000000000	-9.44182400000000	86.58959400000001	-14.17784400000000	0.32292600000000	0.00000000000000	0.09160000000000	-46.54440100000000	773.07349299999998	-49.71653000000000	0.10138400000000	0.00000000000000	-0.07677300000000	0.00000000000000	-8.67396000000000	0.00000000000000	0.00000000000000	-15.97909000000000	0.00000000000000	
13.78661700000000	-9.11747600000000	92.71302300000001	-14.34457800000000	0.32479200000000	0.00000000000000	0.09216100000000	-47.25184200000000	769.60719700000004	-49.18231000000000	0.10069100000000	0.00000000000000	-0.07664500000000	0.00000000000000	-8.88542800000000	0.00000000000000	0.00000000000000	-15.94837800000000	0.00000000000000	
13.78827600000000	-8.66493800000000	98.73759099999999	-14.39295900000000	0.32651100000000	0.00000000000000	0.09269700000000	-47.96915500000000	766.00077999999996	-48.62044700000000	0.10000000000000	0.00000000000000	-0.07651400000000	0.00000000000000	-9.03438500000000	0.00000000000000	0.00000000000000	-15.91820500000000	0.00000000000000	
13.78994900000000	-8.10132600000000	104.70826900000000	-14.33978900000000	0.32810000000000	0.00000000000000	0.09321200000000	-48.69524500000000	762.25189200000000	-48.03132100000000	0.09931000000000	0.00000000000000	-0.07637900000000	0.00000000000000	-9.12999400000000	0.00000000000000	0.00000000000000	-15.88850000000000	0.00000000000000	
13.79161100000000	-7.44380900000000	110.67404900000000	-14.20221100000000	0.32957400000000	0.00000000000000	0.09370600000000	-49.42892700000000	758.35817899999995	-47.41536800000000	0.09862200000000	0.00000000000000	-0.07624100000000	0.00000000000000	-9.18175000000000	0.00000000000000	0.00000000000000	-15.85918100000000	0.00000000000000	
13.79328300000000	-6.70847300000000	116.68362600000000	-13.99645200000000	0.33094800000000	0.00000000000000	0.09418200000000	-50.16893000000000	754.31728399999997	-46.77308000000000	0.09793600000000	0.00000000000000	-0.07610000000000	0.00000000000000	-9.19873500000000	0.00000000000000	0.00000000000000	-15.83015100000000	0.00000000000000	
13.79497400000000	-5.90946800000000	122.78182900000000	-13.73685400000000	0.33223100000000	0.00000000000000	0.09464100000000	-50.91389200000000	750.12686199999996	-46.10500400000000	0.09725300000000	0.00000000000000	-0.07595500000000	0.00000000000000	-9.18904100000000	0.00000000000000	0.00000000000000	-15.80129900000000	0.00000000000000	
13.79661500000000	-5.05844500000000	129.00694100000001	-13.43521600000000	0.33343400000000	0.00000000000000	0.09508400000000	-51.66237200000000	745.78458899999998	-45.41174400000000	0.09657300000000	0.00000000000000	-0.07580700000000	0.00000000000000	-9.15936500000000	0.00000000000000	0.00000000000000	-15.77250100000000	0.00000000000000	
13.79827700000000	-4.16429200000000	135.38896099999999	-13.10044800000000	0.33456400000000	0.00000000000000	0.09551100000000	-52.41284600000000	741.28817200000003	-44.69395800000000	0.09589600000000	0.00000000000000	-0.07565600000000	0.00000000000000	-9.11478600000000	0.00000000000000	0.00000000000000	-15.74362000000000	0.00000000000000	
13.79995000000000	-3.23311700000000	141.94876600000001	-12.73849700000000	0.33562900000000	0.00000000000000	0.09592500000000	-53.16371200000000	736.63536799999997	-43.95236000000000	0.09522200000000	0.00000000000000	-0.07550200000000	0.00000000000000	-9.05869800000000	0.00000000000000	0.00000000000000	-15.71450500000000	0.00000000000000	
13.80161300000000	-2.26845600000000	148.69807299999999	-12.35251300000000	0.33663400000000	0.00000000000000	0.09632600000000	-53.91329500000000	731.82398999999998	-43.18771700000000	0.09455300000000	0.00000000000000	-0.07534400000000	0.00000000000000	-8.99289000000000	0.00000000000000	0.00000000000000	-15.68499100000000	0.00000000000000	
13.80327700000000	-1.27162600000000	155.64006200000000	-11.94319300000000	0.33758300000000	0.00000000000000	0.09671400000000	-54.65985200000000	726.85192800000004	-42.40084600000000	0.09388900000000	0.00000000000000	-0.07518300000000	0.00000000000000	-8.91772100000000	0.00000000000000	0.00000000000000	-15.65490400000000	0.00000000000000	
13.80494200000000	-0.24218600000000	162.77049000000000	-11.50924400000000	0.33848300000000	0.00000000000000	0.09709100000000	-55.40157200000000	721.71716300000003	-41.59262000000000	0.09323000000000	0.00000000000000	-0.07501900000000	0.00000000000000	-8.83238200000000	0.00000000000000	0.00000000000000	-15.62405500000000	0.00000000000000	
13.80661600000000	0.82154600000000	170.07911600000000	-11.04791100000000	0.33933500000000	0.00000000000000	0.09745600000000	-56.13658500000000	716.41778099999999	-40.76395800000000	0.09257700000000	0.00000000000000	-0.07485200000000	0.00000000000000	-8.73518800000000	0.00000000000000	0.00000000000000	-15.59224300000000	0.00000000000000	
13.80827600000000	1.92198800000000	177.55128400000001	-10.55552400000000	0.34014200000000	0.00000000000000	0.09781000000000	-56.86296700000000	710.95199200000002	-39.91582800000000	0.09193000000000	0.00000000000000	-0.07468200000000	0.00000000000000	-8.62389200000000	0.00000000000000	0.00000000000000	-15.55925900000000	0.00000000000000	
13.80994800000000	3.06181600000000	185.16950900000001	-10.02800300000000	0.34090800000000	0.00000000000000	0.09815400000000	-57.57874100000000	705.31814999999995	-39.04924500000000	0.09128900000000	0.00000000000000	-0.07450800000000	0.00000000000000	-8.49597100000000	0.00000000000000	0.00000000000000	-15.52488100000000	0.00000000000000	
13.81160900000000	4.24355100000000	192.91495499999999	-9.46131600000000	0.34163400000000	0.00000000000000	0.09848800000000	-58.28189100000000	699.51476300000002	-38.16526900000000	0.09065600000000	0.00000000000000	-0.07433200000000	0.00000000000000	-8.34889900000000	0.00000000000000	0.00000000000000	-15.48887800000000	0.00000000000000	
13.81327500000000	5.46923500000000	200.76871399999999	-8.85184000000000	0.34232200000000	0.00000000000000	0.09881300000000	-58.97035900000000	693.54051500000003	-37.26499900000000	0.09003000000000	0.00000000000000	-0.07415300000000	0.00000000000000	-8.18035500000000	0.00000000000000	0.00000000000000	-15.45101000000000	0.00000000000000	
13.81494800000000	6.74019100000000	208.71283099999999	-8.19664100000000	0.34297200000000	0.00000000000000	0.09912800000000	-59.64205700000000	687.39428099999998	-36.34957600000000	0.08941300000000	0.00000000000000	-0.07397000000000	0.00000000000000	-7.98838700000000	0.00000000000000	0.00000000000000	-15.41102900000000	0.00000000000000	
13.81661800000000	8.05688400000000	216.73105500000000	-7.49364600000000	0.34358500000000	0.00000000000000	0.09943400000000	-60.29486900000000	681.07513900000004	-35.42017800000000	0.08880300000000	0.00000000000000	-0.07378500000000	0.00000000000000	-7.77152400000000	0.00000000000000	0.00000000000000	-15.36868000000000	0.00000000000000	
13.81828300000000	9.41885700000000	224.80930699999999	-6.74173200000000	0.34416200000000	0.00000000000000	0.09973200000000	-60.92666300000000	674.58238600000004	-34.47801600000000	0.08820200000000	0.00000000000000	-0.07359700000000	0.00000000000000	-7.52883000000000	0.00000000000000	0.00000000000000	-15.32370200000000	0.00000000000000	
13.81994500000000	10.82474500000000	232.93589600000001	-5.94073500000000	0.34470400000000	0.00000000000000	0.10002100000000	-61.53529100000000	667.91554599999995	-33.52433500000000	0.08761100000000	0.00000000000000	-0.07340600000000	0.00000000000000	-7.25991400000000	0.00000000000000	0.00000000000000	-15.27582700000000	0.00000000000000	
